{"title":"Straight.Outta.Compton.2015.720p.WEB-DL.XviD.AC3- RARBG","uid":13107477,"size":4051377081,"categoryP":"video","categoryS":"hd___movies","magnet":"?xt=urn:btih:88e1a81c46e703c4d5fd45bcab14bdce32e6aa90&amp;dn=Straight.Outta.Compton.2015.720p.WEB-DL.XviD.AC3-+RARBG&amp;tr=udp%3A%2F%2Ftracker.leechers-paradise.org%3A6969&amp;tr=udp%3A%2F%2Fzer0day.ch%3A1337&amp;tr=udp%3A%2F%2Fopen.demonii.com%3A1337&amp;tr=udp%3A%2F%2Ftracker.coppersurfer.tk%3A6969&amp;tr=udp%3A%2F%2Fexodus.desync.com%3A6969","seeders":0,"leechers":1,"uploader":"TheRival","files":5,"time":1451352982,"description":"Screens: \nhttp://extraimago.com/image/DvM \nhttp://extraimago.com/image/DvU \nhttp://extraimago.com/image/Dvz \nhttp://extraimago.com/image/Dv0 \nhttp://extraimago.com/image/DvJ \nhttp://extraimago.com/image/DvK\r\n\r\nVideo\r\nID                                       : 0\r\nFormat                                   : MPEG-4 Visual\r\nFormat profile                           :   \r\nFormat settings, BVOP                    : No\r\nFormat settings, QPel                    : No\r\nFormat settings, GMC                     : No warppoints\r\nFormat settings, Matrix                  : Default (H.263)\r\nCodec ID                                 : XVID\r\nCodec ID/Hint                            : XviD\r\nDuration                                 : 2h 26mn\r\nBit rate                                 : 3 281 Kbps\r\nWidth                                    : 1 280 pixels\r\nHeight                                   : 532 pixels\r\nDisplay aspect ratio                     : 2.40:1\r\nFrame rate                               : 23.976 fps\r\nColor space                              : YUV\r\nChroma subsampling                       : 4:2:0\r\nBit depth                                : 8 bits\r\nScan type                                : Progressive\r\nCompression mode                         : Lossy\r\nBits/(Pixel*Frame)                       : 0.201\r\nStream size                              : 3.37 GiB (89%)\r\nWriting library                          : Lavc56.13.100\r\n\r\nAudio\r\nID                                       : 1\r\nFormat                                   : AC-3\r\nFormat/Info                              : Audio Coding 3\r\nMode extension                           : CM (complete main)\r\nFormat settings, Endianness              : Big\r\nCodec ID                                 : 2000\r\nDuration                                 : 2h 26mn\r\nBit rate mode                            : Constant\r\nBit rate                                 : 384 Kbps\r\nChannel(s)                               : 6 channels\r\nChannel positions                        : Front: L C R, Side: L R, LFE\r\nSampling rate                            : 48.0 KHz\r\nFrame rate                               : 31.250 fps (1536 spf)\r\nCompression mode                         : Lossy\r\nStream size                              : 403 MiB (10%)\r\nAlignment                                : Aligned on interleaves\r\nInterleave, duration                     : 42 ms (1.00 video frame)\r\nInterleave, preload duration             : 512 ms","torrent":{"xt":"urn:btih:88e1a81c46e703c4d5fd45bcab14bdce32e6aa90","amp;dn":"Straight.Outta.Compton.2015.720p.WEB-DL.XviD.AC3-+RARBG","amp;tr":["udp%3A%2F%2Ftracker.leechers-paradise.org%3A6969","udp%3A%2F%2Fzer0day.ch%3A1337","udp%3A%2F%2Fopen.demonii.com%3A1337","udp%3A%2F%2Ftracker.coppersurfer.tk%3A6969","udp%3A%2F%2Fexodus.desync.com%3A6969"],"infoHash":"88e1a81c46e703c4d5fd45bcab14bdce32e6aa90","infoHashBuffer":{"type":"Buffer","data":[136,225,168,28,70,231,3,196,213,253,69,188,171,20,189,206,50,230,170,144]},"announce":[],"urlList":[]}}